<?xml version="1.0" encoding="utf-8"?>
<!-- Generator: Adobe Illustrator 21.0.2, SVG Export Plug-In . SVG Version: 6.00 Build 0)  -->
<svg version="1.1" id="Layer_1" xmlns="http://www.w3.org/2000/svg" xmlns:xlink="http://www.w3.org/1999/xlink" x="0px" y="0px"
	 viewBox="0 0 360 120" style="enable-background:new 0 0 360 120;" xml:space="preserve">
<style type="text/css">
	.st0{fill:#CAD1D9;}
	.st1{fill:none;stroke:#E01B3D;stroke-width:2;stroke-miterlimit:10;}
	.st2{fill:none;stroke:#431220;stroke-miterlimit:10;}
	.st3{fill:none;stroke:#CAD1D9;stroke-miterlimit:10;}
</style>
<g>
	<path class="st0" d="M76.8,83.8c-5.1,1.1-10.2,2-15.4,3l-7.7,1.4L46,89.5c-5.1,0.9-10.3,1.7-15.4,2.5l-7.7,1.2L19,93.8
		c-1.3,0.2-2.6,0.3-4.1-0.7c1.1-1.5,2.3-1.9,3.6-2.1l3.8-0.7l7.7-1.5c5.1-1,10.3-1.9,15.4-2.9l7.7-1.4l7.7-1.3
		c5.1-0.8,10.3-1.7,15.5-2.4L76.8,83.8z"/>
</g>
<path class="st1" d="M36.1,63.4c-7.8,0-22.9-0.2-22.9-11.9S19.9,26,19.9,26"/>
<line class="st2" x1="30.2" y1="51.4" x2="30.2" y2="95.2"/>
<path class="st3" d="M40.1,25.9c0,0,7.4,9.6,7.4,26.1S35,67.6,25.4,67.6"/>
</svg>
