<?xml version="1.0" encoding="utf-8"?>
<!-- Generator: Adobe Illustrator 21.0.2, SVG Export Plug-In . SVG Version: 6.00 Build 0)  -->
<svg version="1.1" id="Layer_1" xmlns="http://www.w3.org/2000/svg" xmlns:xlink="http://www.w3.org/1999/xlink" x="0px" y="0px"
	 viewBox="0 0 183.2 40" style="enable-background:new 0 0 183.2 40;" xml:space="preserve">
<style type="text/css">
	.st0{fill:#431220;}
	.st1{fill:#DD4A6A;}
	.st2{opacity:0.3;}
	.st3{opacity:0.6;fill:#431220;}
</style>
<g>
	<path class="st0" d="M70.1,14.2h2l-4.6,14.7h-1.8L62,16.5l-3.7,12.4h-1.8l-4.7-14.7h2l3.7,12.5l3.7-12.5h1.8l3.5,12.5L70.1,14.2z"
		/>
	<path class="st0" d="M77.9,10.1c0,0.5-0.2,0.8-0.5,0.9c-0.3,0.3-0.6,0.5-0.9,0.5c-0.5,0-0.8-0.2-0.9-0.5c-0.3-0.3-0.5-0.6-0.5-0.9
		c0-0.5,0.2-0.8,0.5-0.9c0.3-0.3,0.6-0.5,0.9-0.5c0.5,0,0.8,0.2,0.9,0.5C77.7,9.3,77.9,9.8,77.9,10.1z M75.6,28.9V14.2h1.8v14.7
		C77.4,28.9,75.6,28.9,75.6,28.9z"/>
	<path class="st0" d="M84.3,14.2v2.4c0.9-1.8,2.6-2.6,4.9-2.6c1.7,0,2.9,0.5,4.1,1.5c1.1,1.1,1.7,2.6,1.7,4.6v8.7h-1.8v-8.4
		c0-1.5-0.5-2.7-1.2-3.7c-0.8-0.8-1.8-1.2-3.2-1.2c-1.4,0-2.4,0.5-3.2,1.2s-1.2,2-1.2,3.7v8.4h-1.8V14.2H84.3z"/>
	<path class="st0" d="M105.8,29c-2.1,0-3.8-0.8-5-2.1c-1.4-1.4-2-3.2-2-5.5s0.6-4.1,2-5.5c1.4-1.4,3.1-2.1,5.2-2.1
		c2.1,0,3.8,0.6,5,2c1.2,1.4,1.8,2.9,1.8,4.9c0,0.5,0,1.1-0.2,1.4h-11.9c0,1.7,0.6,3.1,1.5,4c0.9,0.9,2.1,1.4,3.5,1.4
		c1.1,0,2.1-0.3,2.9-0.8s1.4-1.2,1.7-2h2c-0.5,1.2-1.2,2.3-2.3,3.1C108.9,28.7,107.5,29,105.8,29z M111,20.8c0-1.7-0.5-2.9-1.5-3.8
		c-0.9-0.9-2.1-1.4-3.7-1.4c-1.4,0-2.6,0.5-3.5,1.4c-0.9,0.9-1.5,2.3-1.5,3.8H111z"/>
	<path class="st0" d="M142.4,26.9c-1.4-1.4-2-3.2-2-5.5s0.6-4,2-5.3c1.4-1.4,3.1-2,5-2c1.4,0,2.4,0.3,3.5,0.9
		c1.1,0.6,1.7,1.5,2.3,2.4v-3.2h1.8v14.7h-1.8v-3.2c-0.5,1.1-1.2,1.8-2.3,2.4c-1.1,0.6-2.1,0.9-3.5,0.9
		C145.3,29,143.7,28.4,142.4,26.9z M151.5,25.8c1.1-1.1,1.5-2.6,1.5-4.3c0-1.8-0.5-3.2-1.5-4.3c-1.1-1.1-2.3-1.7-3.8-1.7
		s-2.7,0.5-3.8,1.5c-1.1,1.1-1.5,2.4-1.5,4.3c0,1.8,0.5,3.2,1.5,4.4c1.1,1.1,2.3,1.7,3.8,1.7S150.5,26.9,151.5,25.8z"/>
	<path class="st0" d="M161.8,14.2v2.4c0.8-1.8,2.3-2.6,4.6-2.6v2H166c-1.2,0-2.3,0.3-2.9,1.1s-1.1,1.8-1.1,3.5v8.2h-1.8V14.2H161.8z
		"/>
	<path class="st0" d="M177.3,15.7h-4v9.6c0,0.8,0.2,1.2,0.5,1.5c0.3,0.3,0.8,0.5,1.5,0.5h2.1v1.5H175c-2.3,0-3.4-1.2-3.4-3.5v-9.6
		h-2v-1.5h2v-3.7h1.8v3.7h4v1.5H177.3z"/>
	<path class="st0" d="M182.7,28.4c-0.3,0.3-0.6,0.5-0.9,0.5c-0.3,0-0.6-0.2-0.9-0.5c-0.3-0.3-0.5-0.6-0.5-0.9c0-0.3,0.2-0.6,0.5-0.9
		c0.3-0.3,0.6-0.5,0.9-0.5c0.3,0,0.6,0.2,0.9,0.5c0.3,0.3,0.5,0.6,0.5,0.9C183.2,27.8,183.1,28.1,182.7,28.4z"/>
</g>
<g>
	<path class="st0" d="M116.9,22.1v-1.5h19.2v1.5H116.9z"/>
</g>
<g>
	<path class="st1" d="M34.4,26.7c-1.5-0.6-3.8-1.4-6.4-1.1c-2.3,0.3-3.8,1.2-5.3,2.1c-1.4,0.9-2.6,1.7-4.4,2
		c-0.5,0.2-0.9,0.2-1.4,0.2c-2.1,0-3.4-0.5-4.4-0.9c-1.1-0.5-2.1-0.9-4.1-1.1c-3.1-0.3-5.6,1.1-7,2.3c0.2,0.3,0.2,0.5,0.3,0.8
		c1.4-1.1,3.8-2.4,6.7-2.3c1.8,0.2,2.9,0.6,3.8,1.1c1.1,0.3,2.4,0.8,4.7,0.8c0.5,0,1.1,0,1.5-0.2c1.8-0.3,3.2-1.2,4.6-2.1
		c1.5-0.9,2.9-1.8,5-2.1c2.6-0.3,4.9,0.5,6.3,1.2C34.2,27.2,34.2,27,34.4,26.7z"/>
	<path class="st1" d="M34,19.1c0-0.3-0.2-0.6-0.2-0.9c-1.2-0.6-2.6-1.1-3.8-1.1c-3.4,0-5.2,1.7-6.9,3.4c-1.7,1.5-3.2,2.9-6,2.9
		c-2.6,0-3.7-0.6-4.9-1.2c-1.2-0.6-2.4-1.4-5.3-1.4c-2.7,0-5.2,1.5-6.9,3.1c0,0.2,0,0.3,0,0.5c0,0.2,0,0.5,0,0.6
		c1.7-1.5,4.1-3.2,6.9-3.2s3.8,0.6,5,1.2s2.4,1.4,5.2,1.4c3.1,0,4.7-1.5,6.4-3.2c1.7-1.5,3.4-3.1,6.4-3.1
		C31.5,17.9,32.8,18.3,34,19.1z"/>
	<path class="st1" d="M34.5,22.6c-1.4-0.8-3.1-1.4-4.9-1.2c-2.7,0.2-4.7,1.5-6.6,2.7c-1.4,1.1-2.7,2-4.6,2.3
		c-0.5,0.2-1.1,0.2-1.5,0.2c-2.4,0-3.5-0.6-4.7-1.1c-1.2-0.6-2.3-1.1-4.7-1.2c-3.2-0.2-5.6,1.4-7.3,2.7c0,0.3,0.2,0.6,0.2,0.9
		c1.5-1.4,4-3.1,7.2-2.9c2.3,0.2,3.4,0.6,4.4,1.2c1.2,0.6,2.4,1.2,5,1.2c0.6,0,1.2,0,1.7-0.2c1.8-0.5,3.4-1.4,4.7-2.4
		c1.7-1.2,3.5-2.4,6.1-2.6c1.8-0.2,3.5,0.6,4.9,1.4C34.5,23.2,34.5,22.9,34.5,22.6z"/>
	<path class="st1" d="M33.4,29.8c-1.4-0.3-3.5-0.6-6.1-0.2c-1.7,0.3-3.1,1.1-4.6,1.7c-1.5,0.8-3.2,1.5-4.9,1.8c-0.5,0-0.9,0.2-1.2,0
		c-2.1,0-3.2-0.5-4.4-0.9c-0.9-0.3-1.8-0.6-3.2-0.9c-2.9-0.5-5,0.3-6.6,1.1c0.2,0.2,0.3,0.5,0.5,0.6c1.2-0.6,3.2-1.2,5.8-0.9
		c1.4,0.2,2.3,0.6,3.2,0.9c1.2,0.5,2.6,0.9,4.7,0.9c0.5,0,0.9,0,1.4,0c2-0.3,3.5-1.1,5.2-1.8c1.4-0.8,2.7-1.4,4.3-1.7
		c2.4-0.5,4.4-0.2,5.6,0.2C33.3,30.2,33.4,30.1,33.4,29.8z"/>
	<path class="st1" d="M25.5,33.9c-2.1,1.7-5,2.1-7.9,2.4c-0.5,0-0.8,0-1.2,0c-2.9-0.2-4.7-0.9-7.2-2c-2.4-1.1-4.1-0.5-5.3,0.3
		C4,34.8,4.1,35,4.3,35.3c1.1-0.6,2.4-1.1,4.6-0.2c2.4,1.1,4.4,2,7.5,2.1c0.2,0,0.3,0,0.3,0c0.3,0,0.6,0,0.9,0
		c3.1-0.2,6.1-0.8,8.4-2.6c2.3-1.8,4.4-1.7,5.8-1.4c0.2-0.2,0.3-0.5,0.5-0.6C30.7,32.1,28.1,31.8,25.5,33.9z"/>
	<path class="st1" d="M28.7,35.4c-1.8,1.5-5.5,3.8-11.5,3.8c-4.4,0-7.6-1.2-9.6-2.4H6.3l0,0l0.3,0.2c2,1.4,5.5,3.1,10.7,3.1
		c6.6,0,10.5-2.7,12.4-4.3l0.3-0.3l0,0H28.7z"/>
	<g class="st2">
		<path class="st0" d="M30.2,2.9c-1.4-0.2-3.1-0.3-5.2-0.3c-2,0-3.8,0.3-5.5,0.6c-1.4,0.3-2.6,0.5-3.7,0.5c-1.4,0-2.4-0.2-3.5-0.2
			c-0.9-0.3-2-0.3-3.2-0.3C7.5,3.2,5.5,3.5,4,3.8C4,4,3.8,4.3,3.8,4.6C5.3,4.3,7.3,4,9.2,4c1.2,0,2.1,0.2,3.2,0.2
			c1.1,0.2,2.3,0.2,3.5,0.2s2.4-0.2,3.8-0.5c1.5-0.3,3.4-0.6,5.3-0.6c2.1,0,4,0.2,5.3,0.3C30.4,3.4,30.2,3.1,30.2,2.9z"/>
		<path class="st3" d="M29.6,0.8C29.5,0.3,29.3,0,29.3,0H5.2c0,0-0.2,0.3-0.3,0.8H29.6z"/>
		<path class="st0" d="M31.1,5.8c-1.4-0.2-3.4-0.5-5-0.5c-1.8,0-3.4,0.5-4.9,1.1c-1.5,0.5-3.1,1.1-5,1.1c-1.5,0-2.4-0.2-3.4-0.5
			c-1.1-0.2-2.1-0.3-4.1-0.3s-4.3,0.8-6,1.4c0,0.2,0,0.5-0.2,0.8c1.5-0.6,4.1-1.5,6.1-1.5c1.8,0,2.9,0.2,4,0.5
			c0.9,0.2,2,0.5,3.5,0.5c2,0,3.7-0.6,5.2-1.1c1.5-0.5,2.9-1.1,4.7-1.1c1.8,0,3.8,0.2,5.2,0.5C31.3,6.4,31.1,6.1,31.1,5.8z"/>
		<path class="st0" d="M31.9,8.9c-1.5-0.3-3.5-0.5-4.9-0.5c-1.7,0-3.7,0.8-5.6,1.7c-1.8,0.8-3.7,1.5-5,1.5c-1.4,0-2.6-0.3-4-0.6
			c-1.2-0.5-2.6-0.8-4.1-0.8c-2.3,0-4.7,0.9-6.4,1.8c0,0.3-0.2,0.6-0.2,0.9c1.5-0.8,4.3-2,6.7-2c1.4,0,2.7,0.3,4.1,0.6
			c1.2,0.3,2.6,0.6,4,0.6c1.5,0,3.4-0.8,5.3-1.5c1.8-0.8,3.8-1.5,5.3-1.5c1.2,0,3.4,0.3,4.9,0.5C32.1,9.5,32.1,9.2,31.9,8.9z"/>
		<path class="st0" d="M32.7,12.1c-1.5-0.5-3.2-0.8-4.6-0.8c-2.1,0-4.1,1.1-6.1,2.1c-1.8,1.1-3.5,2-5.3,2c-1.7,0-2.9-0.5-4.3-0.9
			c-1.2-0.3-2.6-0.8-4.6-0.8c-2.3,0-5,1.4-6.9,2.4c0,0.3-0.2,0.6-0.2,0.9c1.7-1.1,4.7-2.7,7-2.7c1.8,0,3.1,0.5,4.4,0.9
			c1.2,0.5,2.6,0.9,4.4,0.9c2,0,3.8-1.1,5.6-2.1c1.8-1.1,3.7-2.1,5.6-2.1c1.4,0,3.2,0.5,4.9,0.9C32.8,12.5,32.8,12.4,32.7,12.1z"/>
		<path class="st0" d="M33.4,15c-1.5-0.5-2.9-0.8-4.4-0.8c-2.7,0-4.6,1.4-6.4,2.7c-1.7,1.2-3.4,2.4-5.6,2.4c-2.1,0-3.4-0.5-4.6-1.1
			c-1.2-0.6-2.6-1.1-5-1.1c-2.7,0-5.3,1.7-7.2,3.1c0,0.3-0.2,0.8-0.2,1.1c1.7-1.5,4.4-3.5,7.2-3.5c2.3,0,3.5,0.5,4.7,1.1
			c1.2,0.6,2.6,1.1,4.9,1.1c2.6,0,4.3-1.4,6.1-2.6c1.8-1.4,3.5-2.6,6.1-2.6c1.4,0,3.1,0.5,4.4,0.9C33.4,15.6,33.4,15.3,33.4,15z"/>
	</g>
</g>
</svg>
