<?xml version="1.0" encoding="utf-8"?>
<!-- Generator: Adobe Illustrator 21.0.2, SVG Export Plug-In . SVG Version: 6.00 Build 0)  -->
<svg version="1.1" id="Layer_1" xmlns="http://www.w3.org/2000/svg" xmlns:xlink="http://www.w3.org/1999/xlink" x="0px" y="0px"
	 viewBox="0 0 360 120" style="enable-background:new 0 0 360 120;" xml:space="preserve">
<style type="text/css">
	.st0{fill:none;stroke:#E01B3D;stroke-width:2;stroke-miterlimit:10;}
	.st1{fill:none;stroke:#E01B3D;stroke-miterlimit:10;}
	.st2{fill:none;stroke:#431220;stroke-miterlimit:10;}
	.st3{fill:#CAD1D9;}
</style>
<path class="st0" d="M11.3,59.1h23.3C63.7,59.1,56.5,46,94.3,46h28.3"/>
<path class="st1" d="M11.3,73.1h23.3C63.7,73.1,56.5,60,94.3,60h14.3"/>
<path class="st2" d="M11.3,87.1h23.3C63.7,87.1,56.5,74,94.3,74"/>
<g>
	<path class="st3" d="M55.4,32.9c3.5,3.2,6.8,6.5,10.2,9.8l5,5l5,5c3.3,3.3,6.6,6.7,9.9,10.1l4.9,5.1l2.4,2.6
		c0.8,0.8,1.5,1.8,1.5,3.5c-1.7,0.1-2.7-0.7-3.5-1.5l-2.6-2.4l-5.1-4.9c-3.4-3.3-6.8-6.6-10.1-9.9l-5-5l-5-5
		c-3.3-3.4-6.6-6.8-9.8-10.2L55.4,32.9z"/>
</g>
</svg>
