<?xml version="1.0" encoding="utf-8"?>
<!-- Generator: Adobe Illustrator 21.0.2, SVG Export Plug-In . SVG Version: 6.00 Build 0)  -->
<svg version="1.1" id="Layer_1" xmlns="http://www.w3.org/2000/svg" xmlns:xlink="http://www.w3.org/1999/xlink" x="0px" y="0px"
	 viewBox="0 0 360 120" style="enable-background:new 0 0 360 120;" xml:space="preserve">
<style type="text/css">
	.st0{fill:none;stroke:#431220;stroke-miterlimit:10;}
	.st1{fill:none;stroke:#CAD1D9;stroke-miterlimit:10;}
	.st2{fill:none;stroke:#E01B3D;stroke-width:2;stroke-miterlimit:10;}
	.st3{fill:none;stroke:#E01B3D;stroke-miterlimit:10;}
</style>
<path class="st0" d="M4.4,65.3h23.3c29.1,0,21.8-13.1,59.7-13.1h14"/>
<path class="st1" d="M4.4,78.4h23.3c29.1,0,21.8-13.1,59.7-13.1h14"/>
<line class="st2" x1="22.2" y1="96.2" x2="22.2" y2="52.2"/>
<path class="st3" d="M22.2,52.2c-6.5,0-11.7-5.3-11.7-11.7s5.3-11.7,11.7-11.7c4.1,0,7.6,2.1,9.7,5.2l0.1,0.1
	c2.1-3.2,5.7-5.3,9.8-5.3s7.7,2.1,9.8,5.3c2.1-3.2,5.7-5.3,9.8-5.3c6.5,0,11.7,5.3,11.7,11.7"/>
</svg>
