<?xml version="1.0" encoding="utf-8"?>
<!-- Generator: Adobe Illustrator 21.0.2, SVG Export Plug-In . SVG Version: 6.00 Build 0)  -->
<svg version="1.1" id="Layer_1" xmlns="http://www.w3.org/2000/svg" xmlns:xlink="http://www.w3.org/1999/xlink" x="0px" y="0px"
	 viewBox="0 0 360 120" style="enable-background:new 0 0 360 120;" xml:space="preserve">
<style type="text/css">
	.st0{fill:none;stroke:#E01B3D;stroke-miterlimit:10;}
	.st1{fill:none;stroke:#CAD1D9;stroke-miterlimit:10;}
	.st2{fill:none;stroke:#E01B3D;stroke-width:2;stroke-miterlimit:10;}
	.st3{fill:none;stroke:#431220;stroke-miterlimit:10;}
</style>
<line class="st0" x1="6.8" y1="85.7" x2="56.3" y2="36.2"/>
<path class="st1" d="M6.9,62.6c2.6-5.2,1.8-11.3,7.5-16.2c5.5-4.7,11.7-6.3,15.8-10.6"/>
<path class="st1" d="M7.6,66.5c4.2-5.5,2.3-12.6,8.8-18.2c6.2-5.3,13.4-6.7,17.3-12.5"/>
<path class="st1" d="M30.2,35.7c-4.1,4.3-10.3,5.9-15.8,10.6c-5.7,4.9-4.9,11-7.5,16.2"/>
<path class="st1" d="M37.1,36.4c-3.6,7.4-11.5,8.5-18.3,14.3c-7,6-4.2,13.8-9.9,19.5"/>
<path class="st1" d="M8.9,70.1c5.7-5.7,2.9-13.5,9.9-19.5c6.8-5.8,14.7-7,18.3-14.3"/>
<path class="st1" d="M33.7,35.8c-3.9,5.8-11.1,7.2-17.3,12.5C9.9,53.9,11.9,61,7.6,66.5"/>
<circle class="st2" cx="31.3" cy="60.2" r="6.1"/>
<circle class="st3" cx="31.3" cy="60.2" r="24.5"/>
</svg>
